# xmcd
#
# Track frame offsets:
#	150
#	15122
#	31464
#	46602
#	62541
#	78223
#	97463
#	113282
#	124637
#	144277
#	157686
#	181905
#
# Disc length: 2635 seconds
#
# Revision: 1
# Processed by: cddbd v1.5.2PL0 Copyright (c) Steve Scherf et al.
# Submitted via: audiograbber 1.83.01
#
DISCID=7c0a490c
DTITLE=Ryan Blau - Heroes Ryan Blau
DYEAR=2008
DGENRE=Country
TTITLE0=Hero To The World 
TTITLE1=I´m Going Home
TTITLE2=When The Hammer Falls
TTITLE3=Souped Up Purple Truck
TTITLE4=Jealous To The Bone
TTITLE5=She´s Alone
TTITLE6=What Going On
TTITLE7=Blues Singer With A Red Guitar
TTITLE8=Angle In Blue
TTITLE9=If You So Much As Touch Me
TTITLE10=Me And The Whiskey
TTITLE11=Natural Born Guitar Man
EXTD=
EXTT0=
EXTT1=
EXTT2=
EXTT3=
EXTT4=
EXTT5=
EXTT6=
EXTT7=
EXTT8=
EXTT9=
EXTT10=
EXTT11=
PLAYORDER=
